<svg width="54" height="55" viewBox="0 0 54 55" fill="none" xmlns="http://www.w3.org/2000/svg">
<path d="M52.5 54.998H1.5C1.10218 54.998 0.720645 54.84 0.43934 54.5587C0.158036 54.2774 0 53.8959 0 53.498V2.49805C0 2.10022 0.158036 1.71869 0.43934 1.43739C0.720645 1.15608 1.10218 0.998047 1.5 0.998047H52.5C52.8978 0.998047 53.2794 1.15608 53.5607 1.43739C53.842 1.71869 54 2.10022 54 2.49805V53.498C54 53.8959 53.842 54.2774 53.5607 54.5587C53.2794 54.84 52.8978 54.998 52.5 54.998ZM3 51.998H51V3.99805H3V51.998Z" fill="white"/>
<path d="M9 8.5C9 8.89783 8.84197 9.27936 8.56066 9.56066C8.27936 9.84197 7.89783 10 7.5 10C7.10218 10 6.72064 9.84197 6.43934 9.56066C6.15804 9.27936 6 8.89783 6 8.5C6 8.10218 6.15804 7.72064 6.43934 7.43934C6.72064 7.15804 7.10218 7 7.5 7C7.89783 7 8.27936 7.15804 8.56066 7.43934C8.84197 7.72064 9 8.10218 9 8.5Z" fill="white"/>
<path d="M15 8.5C15 8.89783 14.842 9.27936 14.5607 9.56066C14.2794 9.84197 13.8978 10 13.5 10C13.1022 10 12.7206 9.84197 12.4393 9.56066C12.158 9.27936 12 8.89783 12 8.5C12 8.10218 12.158 7.72064 12.4393 7.43934C12.7206 7.15804 13.1022 7 13.5 7C13.8978 7 14.2794 7.15804 14.5607 7.43934C14.842 7.72064 15 8.10218 15 8.5Z" fill="white"/>
<path d="M21 8.5C21 8.89783 20.842 9.27936 20.5607 9.56066C20.2794 9.84197 19.8978 10 19.5 10C19.1022 10 18.7206 9.84197 18.4393 9.56066C18.158 9.27936 18 8.89783 18 8.5C18 8.10218 18.158 7.72064 18.4393 7.43934C18.7206 7.15804 19.1022 7 19.5 7C19.8978 7 20.2794 7.15804 20.5607 7.43934C20.842 7.72064 21 8.10218 21 8.5Z" fill="white"/>
<path d="M52.4998 11.5C28.0348 11.5 29.5648 11.68 28.9348 11.065L21.4348 3.56503C21.1523 3.28258 20.9937 2.89949 20.9937 2.50003C20.9937 2.10058 21.1523 1.71749 21.4348 1.43503C21.7172 1.15258 22.1003 0.993896 22.4998 0.993896C22.8992 0.993896 23.2823 1.15258 23.5648 1.43503L30.6148 8.50003H52.4998C52.8976 8.50003 53.2791 8.65807 53.5605 8.93937C53.8418 9.22068 53.9998 9.60221 53.9998 10C53.9998 10.3979 53.8418 10.7794 53.5605 11.0607C53.2791 11.342 52.8976 11.5 52.4998 11.5Z" fill="white"/>
<path d="M31.5 38.5H22.5C22.1022 38.5 21.7206 38.342 21.4393 38.0607C21.158 37.7794 21 37.3978 21 37V22C21 21.6022 21.158 21.2206 21.4393 20.9393C21.7206 20.658 22.1022 20.5 22.5 20.5H31.5C31.8978 20.5 32.2794 20.658 32.5607 20.9393C32.842 21.2206 33 21.6022 33 22C33 22.3978 32.842 22.7794 32.5607 23.0607C32.2794 23.342 31.8978 23.5 31.5 23.5H24V35.5H31.5C31.8978 35.5 32.2794 35.658 32.5607 35.9393C32.842 36.2206 33 36.6022 33 37C33 37.3978 32.842 37.7794 32.5607 38.0607C32.2794 38.342 31.8978 38.5 31.5 38.5Z" fill="white"/>
<path d="M42 38.5C40.4087 38.5 38.8826 37.8679 37.7574 36.7426C36.6321 35.6174 36 34.0913 36 32.5V26.5C36 24.9087 36.6321 23.3826 37.7574 22.2574C38.8826 21.1321 40.4087 20.5 42 20.5C43.5913 20.5 45.1174 21.1321 46.2426 22.2574C47.3679 23.3826 48 24.9087 48 26.5V32.5C48 34.0913 47.3679 35.6174 46.2426 36.7426C45.1174 37.8679 43.5913 38.5 42 38.5ZM42 23.5C41.2044 23.5 40.4413 23.8161 39.8787 24.3787C39.3161 24.9413 39 25.7043 39 26.5V32.5C39 33.2956 39.3161 34.0587 39.8787 34.6213C40.4413 35.1839 41.2044 35.5 42 35.5C42.7956 35.5 43.5587 35.1839 44.1213 34.6213C44.6839 34.0587 45 33.2956 45 32.5V26.5C45 25.7043 44.6839 24.9413 44.1213 24.3787C43.5587 23.8161 42.7956 23.5 42 23.5Z" fill="white"/>
<path d="M12.75 38.5H10.5C9.30653 38.5 8.16193 38.0259 7.31802 37.182C6.47411 36.3381 6 35.1935 6 34C6 33.6022 6.15804 33.2206 6.43934 32.9393C6.72064 32.658 7.10218 32.5 7.5 32.5C7.89782 32.5 8.27936 32.658 8.56066 32.9393C8.84196 33.2206 9 33.6022 9 34C9 34.3978 9.15804 34.7794 9.43934 35.0607C9.72064 35.342 10.1022 35.5 10.5 35.5H12.75C13.3467 35.5 13.919 35.2629 14.341 34.841C14.7629 34.419 15 33.8467 15 33.25C15 32.6533 14.7629 32.081 14.341 31.659C13.919 31.2371 13.3467 31 12.75 31H11.25C9.85761 31 8.52226 30.4469 7.53769 29.4623C6.55312 28.4777 6 27.1424 6 25.75C6 24.3576 6.55312 23.0223 7.53769 22.0377C8.52226 21.0531 9.85761 20.5 11.25 20.5H13.5C18 20.5 19.38 26.5 16.5 26.5C16.1022 26.5 15.7206 26.342 15.4393 26.0607C15.158 25.7794 15 25.3978 15 25C15 24.6022 14.842 24.2206 14.5607 23.9393C14.2794 23.658 13.8978 23.5 13.5 23.5H11.25C10.6533 23.5 10.081 23.7371 9.65901 24.159C9.23705 24.581 9 25.1533 9 25.75C9 26.3467 9.23705 26.919 9.65901 27.341C10.081 27.7629 10.6533 28 11.25 28H12.75C14.1424 28 15.4777 28.5531 16.4623 29.5377C17.4469 30.5223 18 31.8576 18 33.25C18 34.6424 17.4469 35.9777 16.4623 36.9623C15.4777 37.9469 14.1424 38.5 12.75 38.5Z" fill="white"/>
<path d="M27 31H22.5C22.1022 31 21.7206 30.842 21.4393 30.5607C21.158 30.2794 21 29.8978 21 29.5C21 29.1022 21.158 28.7206 21.4393 28.4393C21.7206 28.158 22.1022 28 22.5 28H27C27.3978 28 27.7794 28.158 28.0607 28.4393C28.342 28.7206 28.5 29.1022 28.5 29.5C28.5 29.8978 28.342 30.2794 28.0607 30.5607C27.7794 30.842 27.3978 31 27 31Z" fill="white"/>
<path d="M30 23.5V22C30 21.6022 30.158 21.2206 30.4393 20.9393C30.7206 20.658 31.1022 20.5 31.5 20.5C31.8978 20.5 32.2794 20.658 32.5607 20.9393C32.842 21.2206 33 21.6022 33 22V23.5C33 23.8978 32.842 24.2794 32.5607 24.5607C32.2794 24.842 31.8978 25 31.5 25C31.1022 25 30.7206 24.842 30.4393 24.5607C30.158 24.2794 30 23.8978 30 23.5Z" fill="white"/>
<path d="M30 37V35.5C30 35.1022 30.158 34.7206 30.4393 34.4393C30.7206 34.158 31.1022 34 31.5 34C31.8978 34 32.2794 34.158 32.5607 34.4393C32.842 34.7206 33 35.1022 33 35.5V37C33 37.3978 32.842 37.7794 32.5607 38.0607C32.2794 38.342 31.8978 38.5 31.5 38.5C31.1022 38.5 30.7206 38.342 30.4393 38.0607C30.158 37.7794 30 37.3978 30 37Z" fill="white"/>
</svg>
