<svg width="84" height="84" viewBox="0 0 84 84" fill="none" xmlns="http://www.w3.org/2000/svg">
<path d="M65.625 18.375H71.2425C71.9079 18.3987 72.5622 18.5533 73.1678 18.8301C73.7735 19.1068 74.3186 19.5003 74.7721 19.9879C75.2255 20.4755 75.5784 21.0477 75.8106 21.6718C76.0427 22.2959 76.1496 22.9596 76.125 23.625V57.75" stroke="white" stroke-width="4" stroke-linecap="round" stroke-linejoin="round"/>
<path d="M18.3745 18.375H12.757C12.0916 18.3987 11.4373 18.5533 10.8317 18.8301C10.2261 19.1068 9.68094 19.5003 9.22747 19.9879C8.77401 20.4755 8.42111 21.0477 8.18896 21.6718C7.95681 22.2959 7.84997 22.9596 7.87454 23.625V68.25H76.1245" stroke="white" stroke-width="4" stroke-linecap="round" stroke-linejoin="round"/>
<path d="M2.625 68.25H81.375V73.5C81.375 75.5886 80.5453 77.5916 79.0685 79.0685C77.5916 80.5453 75.5886 81.375 73.5 81.375H10.5C8.41142 81.375 6.40838 80.5453 4.93153 79.0685C3.45469 77.5916 2.625 75.5886 2.625 73.5V68.25Z" stroke="white" stroke-width="4" stroke-linecap="round" stroke-linejoin="round"/>
<path d="M55.125 15.75L42 21V28.875L55.125 34.125V15.75Z" stroke="white" stroke-width="4" stroke-linecap="round" stroke-linejoin="round"/>
<path d="M35.4375 18.375H42V31.5H35.4375C33.697 31.5 32.0278 30.8086 30.7971 29.5779C29.5664 28.3472 28.875 26.678 28.875 24.9375V24.9375C28.875 23.197 29.5664 21.5278 30.7971 20.2971C32.0278 19.0664 33.697 18.375 35.4375 18.375V18.375Z" stroke="white" stroke-width="4" stroke-linecap="round" stroke-linejoin="round"/>
<path d="M55.125 13.125V36.75" stroke="white" stroke-width="4" stroke-linecap="round" stroke-linejoin="round"/>
<path d="M34.7554 31.4738H34.7816L36.7504 39.375" stroke="white" stroke-width="4" stroke-linecap="round" stroke-linejoin="round"/>
<path d="M57.75 2.625H26.25C24.1614 2.625 22.1584 3.45469 20.6815 4.93153C19.2047 6.40838 18.375 8.41142 18.375 10.5V42C18.375 44.0886 19.2047 46.0916 20.6815 47.5685C22.1584 49.0453 24.1614 49.875 26.25 49.875H36.75L42 55.125L47.25 49.875H57.75C59.8386 49.875 61.8416 49.0453 63.3185 47.5685C64.7953 46.0916 65.625 44.0886 65.625 42V10.5C65.625 8.41142 64.7953 6.40838 63.3185 4.93153C61.8416 3.45469 59.8386 2.625 57.75 2.625Z" stroke="white" stroke-width="4" stroke-linecap="round" stroke-linejoin="round"/>
</svg>
