<svg width="52" height="52" viewBox="0 0 52 52" fill="none" xmlns="http://www.w3.org/2000/svg">
<path d="M32 36L28 40H42V45C42 46.5913 41.3679 48.1174 40.2426 49.2426C39.1174 50.3679 37.5913 51 36 51H16C14.4087 51 12.8826 50.3679 11.7574 49.2426C10.6321 48.1174 10 46.5913 10 45V28H17C18.0609 28 19.0783 27.5786 19.8284 26.8284C20.5786 26.0783 21 25.0609 21 24V16L25 12H10V7C10 5.4087 10.6321 3.88258 11.7574 2.75736C12.8826 1.63214 14.4087 1 16 1H36C37.5913 1 39.1174 1.63214 40.2426 2.75736C41.3679 3.88258 42 5.4087 42 7V25H36C34.9391 25 33.9217 25.4214 33.1716 26.1716C32.4214 26.9217 32 27.9391 32 29V36Z" stroke="white" stroke-width="2" stroke-linecap="round" stroke-linejoin="round"/>
<path d="M25 12L21 16V24C21 25.0609 20.5786 26.0783 19.8284 26.8284C19.0783 27.5786 18.0609 28 17 28H5C3.93913 28 2.92172 27.5786 2.17157 26.8284C1.42143 26.0783 1 25.0609 1 24V16C1 14.9391 1.42143 13.9217 2.17157 13.1716C2.92172 12.4214 3.93913 12 5 12H25Z" stroke="white" stroke-width="2" stroke-linecap="round" stroke-linejoin="round"/>
<path d="M51 29V36C51 37.0609 50.5786 38.0783 49.8284 38.8284C49.0783 39.5786 48.0609 40 47 40H28L32 36V29C32 27.9391 32.4214 26.9217 33.1716 26.1716C33.9217 25.4214 34.9391 25 36 25H47C48.0609 25 49.0783 25.4214 49.8284 26.1716C50.5786 26.9217 51 27.9391 51 29Z" stroke="white" stroke-width="2" stroke-linecap="round" stroke-linejoin="round"/>
<path d="M14.1299 22.17L10.8799 24.75L7.62988 22.17C7.01686 21.6901 6.51531 21.0828 6.15988 20.39C5.99346 20.0816 5.89781 19.74 5.87988 19.39C5.88367 18.82 6.06843 18.2659 6.40753 17.8077C6.74663 17.3495 7.22253 17.0108 7.76657 16.8406C8.3106 16.6704 8.89465 16.6774 9.43444 16.8606C9.97424 17.0439 10.4419 17.3938 10.7699 17.86C10.8122 17.9093 10.849 17.9629 10.8799 18.02C10.9108 17.9605 10.9514 17.9064 10.9999 17.86C11.2456 17.5072 11.5732 17.2191 11.9546 17.0206C12.336 16.822 12.7599 16.7189 13.1899 16.72C13.8999 16.72 14.5811 17.0007 15.085 17.5008C15.5889 18.001 15.8746 18.6801 15.8799 19.39C15.862 19.74 15.7663 20.0816 15.5999 20.39C15.2477 21.0849 14.7456 21.6929 14.1299 22.17V22.17Z" stroke="white" stroke-width="2" stroke-linecap="round" stroke-linejoin="round"/>
<path d="M37 30H46" stroke="white" stroke-width="2" stroke-linecap="round" stroke-linejoin="round"/>
<path d="M37 35H46" stroke="white" stroke-width="2" stroke-linecap="round" stroke-linejoin="round"/>
</svg>
