<svg width="48" height="48" viewBox="0 0 48 48" fill="none" xmlns="http://www.w3.org/2000/svg">
<path d="M19.5 21.5001L13.5 27.5001L19.5 33.5001" stroke="white" stroke-width="2" stroke-linecap="round" stroke-linejoin="round"/>
<path d="M30 33.5001L36 27.5001L30 21.5001" stroke="white" stroke-width="2" stroke-linecap="round" stroke-linejoin="round"/>
<path d="M45.9583 47.2489H2.04167C1.6991 47.2489 1.37056 47.1128 1.12832 46.8706C0.886086 46.6283 0.75 46.2998 0.75 45.9572V2.04057C0.75 1.698 0.886086 1.36946 1.12832 1.12722C1.37056 0.884988 1.6991 0.748901 2.04167 0.748901H45.9583C46.3009 0.748901 46.6294 0.884988 46.8717 1.12722C47.1139 1.36946 47.25 1.698 47.25 2.04057V45.9572C47.25 46.2998 47.1139 46.6283 46.8717 46.8706C46.6294 47.1128 46.3009 47.2489 45.9583 47.2489ZM3.33333 44.6656H44.6667V3.33223H3.33333V44.6656Z" fill="white"/>
<path d="M8.50033 7.20842C8.50033 7.55099 8.36424 7.87953 8.12201 8.12176C7.87977 8.364 7.55123 8.50008 7.20866 8.50008C6.86609 8.50008 6.53755 8.364 6.29531 8.12176C6.05308 7.87953 5.91699 7.55099 5.91699 7.20842C5.91699 6.86584 6.05308 6.5373 6.29531 6.29507C6.53755 6.05283 6.86609 5.91675 7.20866 5.91675C7.55123 5.91675 7.87977 6.05283 8.12201 6.29507C8.36424 6.5373 8.50033 6.86584 8.50033 7.20842Z" fill="white"/>
<path d="M13.6663 7.20842C13.6663 7.55099 13.5303 7.87953 13.288 8.12176C13.0458 8.364 12.7172 8.50008 12.3747 8.50008C12.0321 8.50008 11.7036 8.364 11.4613 8.12176C11.2191 7.87953 11.083 7.55099 11.083 7.20842C11.083 6.86584 11.2191 6.5373 11.4613 6.29507C11.7036 6.05283 12.0321 5.91675 12.3747 5.91675C12.7172 5.91675 13.0458 6.05283 13.288 6.29507C13.5303 6.5373 13.6663 6.86584 13.6663 7.20842Z" fill="white"/>
<path d="M18.8333 7.20842C18.8333 7.55099 18.6972 7.87953 18.455 8.12176C18.2128 8.364 17.8842 8.50008 17.5417 8.50008C17.1991 8.50008 16.8706 8.364 16.6283 8.12176C16.3861 7.87953 16.25 7.55099 16.25 7.20842C16.25 6.86584 16.3861 6.5373 16.6283 6.29507C16.8706 6.05283 17.1991 5.91675 17.5417 5.91675C17.8842 5.91675 18.2128 6.05283 18.455 6.29507C18.6972 6.5373 18.8333 6.86584 18.8333 7.20842Z" fill="white"/>
<path d="M45.9584 9.7917C24.8913 9.7917 26.2088 9.9467 25.6663 9.41712L19.208 2.95879C18.9648 2.71556 18.8281 2.38568 18.8281 2.0417C18.8281 1.69773 18.9648 1.36785 19.208 1.12462C19.4512 0.881394 19.7811 0.744751 20.1251 0.744751C20.469 0.744751 20.7989 0.881394 21.0422 1.12462L27.113 7.20837H45.9584C46.301 7.20837 46.6295 7.34446 46.8718 7.58669C47.114 7.82892 47.2501 8.15746 47.2501 8.50004C47.2501 8.84261 47.114 9.17115 46.8718 9.41338C46.6295 9.65562 46.301 9.7917 45.9584 9.7917Z" fill="white"/>
</svg>
